<svg width="47" height="41" fill="none" xmlns="http://www.w3.org/2000/svg"><path d="M46.228 29.034a3.07 3.07 0 00-2.504-2.223V9.205h1.534a.767.767 0 00.767-.767V.768A.767.767 0 0045.258 0H11.506a.767.767 0 00-.767.767v7.671c0 .424.344.767.767.767h1.534v15.342h-.767a9.878 9.878 0 00-5.37 1.572v-3.873a.767.767 0 00-.766-.767H.767a.767.767 0 00-.767.767v17.643c0 .423.344.767.767.767h5.37a.767.767 0 00.767-.767v-3.873a9.888 9.888 0 005.37 1.571h12.595a10.098 10.098 0 002.584-.34l16.608-4.45a3.08 3.08 0 002.167-3.763zm-33.955-27.5h32.218v6.137H12.273V1.534zm2.302 7.671H42.19v17.738l-8.903 2.387a3.084 3.084 0 00-2.03-1.781l-10.335-2.772a6.974 6.974 0 00-1.783-.23h-4.564V9.205zM5.37 39.121H1.534V23.013H5.37V39.12zm38.293-7.806l-16.605 4.45a8.56 8.56 0 01-2.19.288H12.274a8.38 8.38 0 01-5.063-1.688l-.306-.23V28l.306-.23a8.374 8.374 0 015.063-1.688h6.866c.468 0 .936.06 1.39.18l10.331 2.77c.61.168 1.058.691 1.128 1.321a.732.732 0 00.03.093.773.773 0 00-.02.1c0 .125-.016.25-.05.37a1.534 1.534 0 01-1.879 1.083l-6.52-1.748a.767.767 0 10-.398 1.481l6.52 1.75c.26.068.53.102.8.102a3.06 3.06 0 002.951-2.254c.043-.154.072-.311.087-.47l9.352-2.508c.066-.016.139-.034.207-.045a1.534 1.534 0 011.73 1.526 1.534 1.534 0 01-1.135 1.483z" fill="#fff"/></svg>