<svg width="76" height="75" fill="none" xmlns="http://www.w3.org/2000/svg"><mask id="a" maskUnits="userSpaceOnUse" x="0" y="0" width="76" height="75" fill="#000"><path fill="#fff" d="M0 0h76v75H0z"/><path fill-rule="evenodd" clip-rule="evenodd" d="M37.16 1.215a1.75 1.75 0 011.68 0l35.263 19.333c.554.304.897.881.897 1.508v50.221A1.73 1.73 0 0173.263 74H68.66a1.73 1.73 0 01-1.737-1.723V41.5H9.077v30.777A1.73 1.73 0 017.34 74H2.737A1.73 1.73 0 011 72.277V22.056c0-.627.343-1.204.897-1.508L37.159 1.215zm29.763 38.562v-4.054H9.077v4.054h57.846zm0-5.777v-4.356H9.077V34h57.846zM38 2.723L2.737 22.056v50.221H7.34V29.644a1.73 1.73 0 011.737-1.723h57.846a1.73 1.73 0 011.737 1.723v42.633h4.603V22.056L38 2.723zM32.728 16.95v4.098h10.544V16.95H32.728zM31.864 15c-.477 0-.864.437-.864.976v6.048c0 .54.387.976.864.976h12.272c.477 0 .864-.437.864-.976v-6.048c0-.54-.387-.976-.864-.976H31.864zm5.534 47.398v10.204h10.204V62.398H37.398zm-.7-1.398a.699.699 0 00-.698.699V73.3a.7.7 0 00.699.699H48.3a.699.699 0 00.699-.699V61.7a.699.699 0 00-.699-.699H36.7zM41 63h3v2.372c0 .347-.247.628-.551.628h-1.898c-.304 0-.551-.281-.551-.628V63zm.612.698v1.604h1.776v-1.604h-1.776zm10.786 8.904V62.398h10.204v10.204H52.398zM51 61.7a.7.7 0 01.699-.699H63.3a.7.7 0 01.699.699v11.6a.699.699 0 01-.699.699H51.7a.699.699 0 01-.699-.699V61.7zm8 1.3h-3v2.372c0 .347.247.628.551.628h1.898c.304 0 .551-.281.551-.628V63zm-2.388 2.302v-1.604h1.776v1.604h-1.776zm-4.214-17.904v10.204h10.204V47.398H52.398zm-.7-1.398a.699.699 0 00-.698.699V58.3a.7.7 0 00.699.699H63.3a.699.699 0 00.699-.699V46.7a.699.699 0 00-.699-.699H51.7zM56 48h3v2.372c0 .347-.247.628-.551.628h-1.898c-.304 0-.551-.281-.551-.628V48zm.612.698v1.604h1.776v-1.604h-1.776z"/></mask><path fill-rule="evenodd" clip-rule="evenodd" d="M37.16 1.215a1.75 1.75 0 011.68 0l35.263 19.333c.554.304.897.881.897 1.508v50.221A1.73 1.73 0 0173.263 74H68.66a1.73 1.73 0 01-1.737-1.723V41.5H9.077v30.777A1.73 1.73 0 017.34 74H2.737A1.73 1.73 0 011 72.277V22.056c0-.627.343-1.204.897-1.508L37.159 1.215zm29.763 38.562v-4.054H9.077v4.054h57.846zm0-5.777v-4.356H9.077V34h57.846zM38 2.723L2.737 22.056v50.221H7.34V29.644a1.73 1.73 0 011.737-1.723h57.846a1.73 1.73 0 011.737 1.723v42.633h4.603V22.056L38 2.723zM32.728 16.95v4.098h10.544V16.95H32.728zM31.864 15c-.477 0-.864.437-.864.976v6.048c0 .54.387.976.864.976h12.272c.477 0 .864-.437.864-.976v-6.048c0-.54-.387-.976-.864-.976H31.864zm5.534 47.398v10.204h10.204V62.398H37.398zm-.7-1.398a.699.699 0 00-.698.699V73.3a.7.7 0 00.699.699H48.3a.699.699 0 00.699-.699V61.7a.699.699 0 00-.699-.699H36.7zM41 63h3v2.372c0 .347-.247.628-.551.628h-1.898c-.304 0-.551-.281-.551-.628V63zm.612.698v1.604h1.776v-1.604h-1.776zm10.786 8.904V62.398h10.204v10.204H52.398zM51 61.7a.7.7 0 01.699-.699H63.3a.7.7 0 01.699.699v11.6a.699.699 0 01-.699.699H51.7a.699.699 0 01-.699-.699V61.7zm8 1.3h-3v2.372c0 .347.247.628.551.628h1.898c.304 0 .551-.281.551-.628V63zm-2.388 2.302v-1.604h1.776v1.604h-1.776zm-4.214-17.904v10.204h10.204V47.398H52.398zm-.7-1.398a.699.699 0 00-.698.699V58.3a.7.7 0 00.699.699H63.3a.699.699 0 00.699-.699V46.7a.699.699 0 00-.699-.699H51.7zM56 48h3v2.372c0 .347-.247.628-.551.628h-1.898c-.304 0-.551-.281-.551-.628V48zm.612.698v1.604h1.776v-1.604h-1.776z" fill="#165DED"/><path d="M38.84 1.215l.481-.877-.48.877zm-1.68 0l-.481-.877.48.877zm36.943 19.333l-.48.877.48-.877zM66.923 41.5h1v-1h-1v1zm-57.846 0v-1h-1v1h1zm-7.18-20.952l-.481-.876.48.876zm65.025 15.175h1v-1h-1v1zm0 4.054v1h1v-1h-1zM9.078 35.723v-1h-1v1h1zm0 4.054h-1v1h1v-1zm57.846-10.133h1v-1h-1v1zm0 4.356v1h1v-1h-1zM9.077 29.644v-1h-1v1h1zm0 4.356h-1v1h1v-1zm-6.34-11.944l-.48-.877-.52.285v.592h1zM38 2.723l.48-.877-.48-.264-.48.264.48.877zM2.737 72.277h-1v1h1v-1zm4.603 0v1h1v-1h-1zm61.32 0h-1v1h1v-1zm4.603 0v1h1v-1h-1zm0-50.221h1v-.592l-.52-.285-.48.877zm-40.535-1.007h-1v1h1v-1zm0-4.098v-1h-1v1h1zm10.544 4.098v1h1v-1h-1zm0-4.098h1v-1h-1v1zm-5.874 55.651h-1v1h1v-1zm0-10.204v-1h-1v1h1zm10.204 10.204v1h1v-1h-1zm0-10.204h1v-1h-1v1zM44 63h1v-1h-1v1zm-3 0v-1h-1v1h1zm.612 2.302h-1v1h1v-1zm0-1.604v-1h-1v1h1zm1.776 1.604v1h1v-1h-1zm0-1.604h1v-1h-1v1zm9.01-1.3v-1h-1v1h1zm0 10.204h-1v1h1v-1zm10.204-10.204h1v-1h-1v1zm0 10.204v1h1v-1h-1zM56 63v-1h-1v1h1zm3 0h1v-1h-1v1zm-2.388.698v-1h-1v1h1zm0 1.604h-1v1h1v-1zm1.776-1.604h1v-1h-1v1zm0 1.604v1h1v-1h-1zm-5.99-7.7h-1v1h1v-1zm0-10.204v-1h-1v1h1zm10.204 10.204v1h1v-1h-1zm0-10.204h1v-1h-1v1zM59 48h1v-1h-1v1zm-3 0v-1h-1v1h1zm.612 2.302h-1v1h1v-1zm0-1.604v-1h-1v1h1zm1.776 1.604v1h1v-1h-1zm0-1.604h1v-1h-1v1zM39.32.338a2.75 2.75 0 00-2.642 0l.961 1.754a.75.75 0 01.72 0L39.32.338zm35.263 19.334L39.321.338l-.961 1.754 35.263 19.333.961-1.753zM76 22.056a2.72 2.72 0 00-1.416-2.384l-.961 1.753a.72.72 0 01.377.63h2zm0 50.221V22.056h-2v50.221h2zM73.263 75A2.73 2.73 0 0076 72.277h-2a.73.73 0 01-.737.723v2zm-4.603 0h4.603v-2H68.66v2zm-2.737-2.723A2.73 2.73 0 0068.66 75v-2a.73.73 0 01-.737-.723h-2zm0-30.777v30.777h2V41.5h-2zm-56.846 1h57.846v-2H9.077v2zm1 29.777V41.5h-2v30.777h2zM7.34 75a2.73 2.73 0 002.738-2.723h-2A.73.73 0 017.34 73v2zm-4.603 0H7.34v-2H2.737v2zM0 72.277A2.73 2.73 0 002.737 75v-2A.73.73 0 012 72.277H0zm0-50.221v50.221h2V22.056H0zm1.416-2.384A2.72 2.72 0 000 22.056h2a.72.72 0 01.377-.63l-.961-1.754zM36.679.338L1.416 19.672l.961 1.753L37.64 2.092 36.68.338zm29.243 35.385v4.054h2v-4.054h-2zm-56.845 1h57.846v-2H9.077v2zm1 3.054v-4.054h-2v4.054h2zm56.846-1H9.077v2h57.846v-2zm-1-9.133V34h2v-4.356h-2zm-56.846 1h57.846v-2H9.077v2zm1 3.356v-4.356h-2V34h2zm56.846-1H9.077v2h57.846v-2zM3.218 22.933L38.48 3.599l-.962-1.753L2.256 21.179l.962 1.754zm.52 49.344V22.056h-2v50.221h2zm3.602-1H2.737v2H7.34v-2zm-1-41.633v42.633h2V29.644h-2zm2.737-2.723a2.73 2.73 0 00-2.737 2.723h2a.73.73 0 01.737-.723v-2zm57.846 0H9.077v2h57.846v-2zm2.737 2.723a2.73 2.73 0 00-2.737-2.723v2a.73.73 0 01.737.723h2zm0 42.633V29.644h-2v42.633h2zm3.603-1H68.66v2h4.603v-2zm-1-49.221v50.221h2V22.056h-2zM37.519 3.599l35.263 19.334.962-1.754L38.48 1.846l-.962 1.753zm-3.79 17.45V16.95h-2v4.098h2zm9.543-1H32.728v2h10.544v-2zm-1-3.098v4.098h2V16.95h-2zm-9.544 1h10.544v-2H32.728v2zM32 15.976c0-.031.011-.038.002-.027a.136.136 0 01-.043.03.223.223 0 01-.095.021v-2C30.724 14 30 15.002 30 15.976h2zm0 6.048v-6.048h-2v6.048h2zM31.864 22c.036 0 .069.009.095.02a.134.134 0 01.043.031c.009.01-.002.004-.002-.027h-2c0 .974.724 1.976 1.864 1.976v-2zm12.272 0H31.864v2h12.272v-2zm-.136.024c0 .031-.011.038-.002.027a.134.134 0 01.043-.03.223.223 0 01.095-.021v2C45.276 24 46 22.998 46 22.024h-2zm0-6.048v6.048h2v-6.048h-2zm.136.024a.223.223 0 01-.095-.02.136.136 0 01-.043-.031c-.009-.01.002-.004.002.027h2c0-.974-.724-1.976-1.864-1.976v2zm-12.272 0h12.272v-2H31.864v2zm6.534 56.602V62.398h-2v10.204h2zm9.204-1H37.398v2h10.204v-2zm-1-9.204v10.204h2V62.398h-2zm-9.204 1h10.204v-2H37.398v2zm-.398-1.7a.301.301 0 01-.301.302v-2C35.76 60 35 60.76 35 61.699h2zm0 11.603V61.7h-2v11.6h2zM36.699 73c.166 0 .301.135.301.301h-2c0 .938.76 1.699 1.699 1.699v-2zM48.3 73H36.7v2h11.6v-2zm-.301.301c0-.166.135-.301.301-.301v2c.94 0 1.7-.76 1.7-1.699h-2zM48 61.7v11.6h2V61.7h-2zm.301.301A.301.301 0 0148 61.7h2c0-.94-.76-1.7-1.699-1.7v2zM36.7 62h11.6v-2H36.7v2zm7.3 0h-3v2h3v-2zm1 3.372V63h-2v2.372h2zM43.449 67c.975 0 1.551-.856 1.551-1.628h-2c0-.063.022-.142.087-.216a.483.483 0 01.362-.156v2zm-1.898 0h1.898v-2h-1.898v2zM40 65.372c0 .772.576 1.628 1.551 1.628v-2c.17 0 .295.08.362.156a.329.329 0 01.087.216h-2zM40 63v2.372h2V63h-2zm2.612 2.302v-1.604h-2v1.604h2zm.776-1h-1.776v2h1.776v-2zm-1-.604v1.604h2v-1.604h-2zm-.776 1h1.776v-2h-1.776v2zm9.786-2.3v10.204h2V62.398h-2zm11.204-1H52.398v2h10.204v-2zm1 11.204V62.398h-2v10.204h2zm-11.204 1h10.204v-2H52.398v2zM51.698 60c-.937 0-1.698.76-1.698 1.699h2a.301.301 0 01-.301.301v-2zm11.603 0H51.7v2h11.6v-2zM65 61.699C65 60.76 64.24 60 63.301 60v2a.301.301 0 01-.301-.301h2zM65 73.3V61.7h-2v11.6h2zM63.301 75C64.24 75 65 74.24 65 73.301h-2c0-.166.135-.301.301-.301v2zM51.7 75h11.6v-2H51.7v2zM50 73.301c0 .938.76 1.699 1.699 1.699v-2c.166 0 .301.135.301.301h-2zM50 61.7v11.6h2V61.7h-2zm6 2.3h3v-2h-3v2zm1 1.372V63h-2v2.372h2zM56.551 65c.17 0 .295.08.362.156a.329.329 0 01.087.216h-2c0 .772.576 1.628 1.551 1.628v-2zm1.898 0h-1.898v2h1.898v-2zm-.449.372c0-.063.022-.142.087-.216a.483.483 0 01.362-.156v2c.975 0 1.551-.856 1.551-1.628h-2zM58 63v2.372h2V63h-2zm-2.388.698v1.604h2v-1.604h-2zm2.776-1h-1.776v2h1.776v-2zm1 2.604v-1.604h-2v1.604h2zm-2.776 1h1.776v-2h-1.776v2zm-3.214-8.7V47.398h-2v10.204h2zm9.204-1H52.398v2h10.204v-2zm-1-9.204v10.204h2V47.398h-2zm-9.204 1h10.204v-2H52.398v2zm-.398-1.7a.301.301 0 01-.301.302v-2C50.76 45 50 45.76 50 46.699h2zm0 11.603V46.7h-2v11.6h2zM51.699 58c.166 0 .301.135.301.301h-2c0 .938.76 1.699 1.699 1.699v-2zM63.3 58H51.7v2h11.6v-2zm-.301.301c0-.166.135-.301.301-.301v2c.94 0 1.7-.76 1.7-1.699h-2zM63 46.7v11.6h2V46.7h-2zm.301.301A.301.301 0 0163 46.7h2c0-.94-.76-1.7-1.699-1.7v2zM51.7 47h11.6v-2H51.7v2zm7.3 0h-3v2h3v-2zm1 3.372V48h-2v2.372h2zM58.449 52c.975 0 1.551-.856 1.551-1.628h-2c0-.063.022-.142.087-.215a.483.483 0 01.362-.157v2zm-1.898 0h1.898v-2h-1.898v2zM55 50.372c0 .772.576 1.628 1.551 1.628v-2c.17 0 .295.08.362.157a.329.329 0 01.087.215h-2zM55 48v2.372h2V48h-2zm2.612 2.302v-1.604h-2v1.604h2zm.776-1h-1.776v2h1.776v-2zm-1-.604v1.604h2v-1.604h-2zm-.776 1h1.776v-2h-1.776v2z" fill="#165DED" mask="url(#a)"/></svg>