<svg width="46" height="45" fill="none" xmlns="http://www.w3.org/2000/svg"><path d="M44.681 12.916L23.085.256a.745.745 0 00-.737-.01L.751 12.16a.743.743 0 00-.385.652V44.09c0 .412.334.745.745.745h3.723a.745.745 0 00.745-.745V18.026h34.257v26.065c0 .412.333.745.745.745h3.723a.744.744 0 00.745-.745V13.558a.743.743 0 00-.368-.642zm-1.121 30.43h-2.234V17.281a.744.744 0 00-.745-.744H4.834a.745.745 0 00-.744.744v26.065H1.856V13.252l20.84-11.498 20.864 12.23v29.362z" fill="#fff"/><path d="M37.602 34.41h-8.936a.744.744 0 00-.745.744v8.937c0 .412.333.745.745.745h8.936a.744.744 0 00.745-.745v-8.937a.744.744 0 00-.745-.744zm-.745 8.936H29.41V35.9h7.447v7.447z" fill="#fff"/><path d="M33.879 35.154v2.234h-1.49v-2.234h-1.49v2.98c0 .411.333.744.745.744h2.98a.744.744 0 00.744-.745v-2.979h-1.49zm-5.214-.744H19.73a.744.744 0 00-.745.744v8.937c0 .412.334.745.745.745h8.936a.744.744 0 00.745-.745v-8.937a.744.744 0 00-.745-.744zm-.744 8.936h-7.447V35.9h7.447v7.447z" fill="#fff"/><path d="M24.942 35.154v2.234h-1.49v-2.234h-1.49v2.98c0 .411.335.744.746.744h2.978a.744.744 0 00.745-.745v-2.979h-1.49zm12.66-9.681h-8.936a.744.744 0 00-.745.745v8.936c0 .412.333.745.745.745h8.936a.744.744 0 00.745-.745v-8.936a.744.744 0 00-.745-.745zm-.745 8.937H29.41v-7.447h7.447v7.447z" fill="#fff"/><path d="M33.879 26.218v2.234h-1.49v-2.234h-1.49v2.979c0 .412.333.744.745.744h2.98a.744.744 0 00.744-.744v-2.98h-1.49zm6.702-3.724H4.834v1.49h35.747v-1.49zm0-2.979H4.834v1.49h35.747v-1.49zm-14.15-8.936h-7.447a.745.745 0 00-.745.744v2.98c0 .41.334.744.745.744h7.447a.744.744 0 00.745-.745v-2.979a.744.744 0 00-.745-.744zm-.745 2.979H19.73v-1.49h5.957v1.49z" fill="#fff"/></svg>