<svg width="40" height="41" fill="none" xmlns="http://www.w3.org/2000/svg"><path d="M38.189 23.88h-.61v-5.495c0-.87-.434-1.64-1.095-2.109v-.748a1.97 1.97 0 00-1.968-1.969h-.456l1.743-2.557a1.884 1.884 0 00-.495-2.615L23.481.327a1.868 1.868 0 00-1.41-.294 1.87 1.87 0 00-1.205.79l-10.208 14.98H7.817l.685-6.938a.206.206 0 01.13-.173 4.416 4.416 0 002.154-1.75.205.205 0 01.193-.091l4.456.44a.581.581 0 00.114-1.156l-4.455-.44a1.36 1.36 0 00-1.288.623 3.247 3.247 0 01-1.584 1.287 1.358 1.358 0 00-.876 1.145l-.697 7.053h-.74L6.993 4.829a.72.72 0 01.787-.645l9.003.89a.581.581 0 00.115-1.157l-9.004-.89a1.884 1.884 0 00-2.058 1.688l-.873 8.845H3.475a1.97 1.97 0 00-1.969 1.968v.51A2.585 2.585 0 000 18.385v19.803a2.585 2.585 0 002.582 2.582h32.414a2.585 2.585 0 002.583-2.582v-5.495h.61c.72 0 1.306-.586 1.306-1.306v-6.2c0-.72-.586-1.307-1.306-1.307zm-3.673-9.158c.445 0 .806.361.806.806v.296a2.598 2.598 0 00-.326-.021h-2.464l.736-1.082h1.248zM21.826 1.477a.716.716 0 011-.19l11.828 8.06a.72.72 0 01.19 1l-3.718 5.456h-.893l1.823-2.675c.296-.434.32-.986.064-1.44a3.247 3.247 0 01-.39-2.005 1.359 1.359 0 00-.587-1.304L25.01 4.201a1.359 1.359 0 00-1.428-.07 3.248 3.248 0 01-2.008.37 1.375 1.375 0 00-1.317.587l-7.302 10.715h-.892l9.762-14.326zm.256 9.865a4.794 4.794 0 00-4.776 4.46h-2.944l6.856-10.06a.208.208 0 01.196-.09 4.418 4.418 0 002.73-.504.205.205 0 01.213.013l6.131 4.179c.064.044.1.12.09.193a4.416 4.416 0 00.53 2.725.206.206 0 01-.012.216l-2.268 3.329h-1.97a4.794 4.794 0 00-4.776-4.46zm3.611 4.46h-7.222a3.63 3.63 0 013.611-3.298 3.63 3.63 0 013.611 3.299zm-23.025-.274c0-.445.362-.807.807-.807h1.373l-.107 1.082H2.668v-.275zm-1.506 2.857c0-.784.637-1.42 1.42-1.42h32.414c.784 0 1.42.637 1.42 1.42v1.612H1.163v-1.612zm35.255 19.803c0 .783-.637 1.42-1.42 1.42H2.581c-.783 0-1.42-.637-1.42-1.42v-1.612h3.133a.58.58 0 000-1.162H1.162V21.16h35.255v2.721h-5.524a4.411 4.411 0 00-3.963 2.483l-.008.015-.017.038a4.362 4.362 0 00-.418 1.87 4.411 4.411 0 004.406 4.407h5.524v2.721H8.014a.58.58 0 100 1.162h28.403v1.612zm1.916-6.802c0 .08-.065.145-.144.145h-7.296a3.247 3.247 0 01-2.924-4.65 3.247 3.247 0 012.924-1.839h7.296c.08 0 .144.065.144.144v6.2z" fill="#FFFFFE"/><path d="M31.03 25.93a2.36 2.36 0 00-2.358 2.356 2.36 2.36 0 002.357 2.357 2.36 2.36 0 002.357-2.357 2.36 2.36 0 00-2.357-2.357zm0 3.552a1.196 1.196 0 01-1.196-1.196c0-.658.536-1.195 1.195-1.195a1.196 1.196 0 010 2.39z" fill="#FFFFFE"/></svg>