<svg width="76" height="76" fill="none" xmlns="http://www.w3.org/2000/svg"><path d="M68.204 59.332a36.873 36.873 0 002.754-38.114l-.001-.012a1.07 1.07 0 00-.056-.1 37.159 37.159 0 00-5.991-8.46c-.003-.007-.003-.014-.009-.02a1.165 1.165 0 00-.255-.259 37.2 37.2 0 00-9.632-7.206 1.164 1.164 0 00-.178-.092 36.861 36.861 0 00-32.21-.71 1.161 1.161 0 00-.17.078A37.218 37.218 0 004.01 23.403c-.015.026-.022.052-.034.077a36.987 36.987 0 0015.832 46.746 36.98 36.98 0 0048.196-10.614c.06-.057.115-.12.163-.19.018-.028.02-.06.036-.09h.001zM66.9 57.02c-1.803-1.726-2.513-4.285-3.097-6.4a18.6 18.6 0 00-.845-2.604 41.204 41.204 0 00-.925-1.844c-1.12-2.15-2.81-5.4-2.264-6.955a5.322 5.322 0 00-5.62-7.437 19.58 19.58 0 01-9.044-1.347c-1.994-.844-4.377-4.219-3.55-6.781.8-2.472 6.144-3.64 8.572-2.866 1.02.417 1.99.944 2.895 1.572 2.212 1.391 4.969 3.123 7.908 2.682a64.632 64.632 0 008.27-2.018 34.544 34.544 0 01-2.3 33.998zm-4.931-43.956c-4.204 2.44-8.072 2.997-10.084 1.349-1.588-1.301-3.847-.97-5.843-.675-1.21.177-2.715.4-3.205.007a1.308 1.308 0 01-.298-.87 1.453 1.453 0 01.386-1.14c.806-.896 2.835-1.489 5.428-1.584a11.092 11.092 0 006.234-2.521 34.795 34.795 0 017.382 5.434zM23.179 6.73a8.667 8.667 0 013.426 1.746c.215 2.103 2.547 1.947 4.092 1.851a5.506 5.506 0 012.891.247 15.42 15.42 0 01-1.888 1.295c-1.68 1.044-3.771 2.344-4.635 4.179-1.16 2.463-6.691 6.762-11.852 6.148-.727-.089-2.935-.355-3.886 1.197-1.064 1.735.353 4.123 1.896 6.422.159.236.291.433.377.575a2.466 2.466 0 01-.055 2.177c-.047.055-.162.188-.671-.008-2.892-1.1-5.43-5.015-6.553-8.473A34.821 34.821 0 0123.18 6.73zm14.822 65.885A34.597 34.597 0 013.822 43.468a34.603 34.603 0 011.245-16.097c1.531 3.216 3.97 6.28 6.956 7.418.416.165.86.252 1.308.258a2.589 2.589 0 002.043-.95 4.71 4.71 0 00.27-4.94c-.142-.227-.29-.452-.44-.674-1.848-2.753-1.946-3.594-1.855-3.829.003-.001.316-.24 1.577-.09 6.101.743 12.66-4.024 14.297-7.5.565-1.196 2.323-2.29 3.737-3.168 1.837-1.142 3.919-2.436 2.91-4.265-1.082-1.962-3.532-1.8-5.327-1.686-.534.05-1.071.06-1.607.028A4.607 4.607 0 0026.32 5.42a34.52 34.52 0 0125.843 1.01 7.982 7.982 0 01-3.9 1.334c-2.35.086-5.49.57-7.114 2.375a3.85 3.85 0 00-.993 2.9 3.436 3.436 0 001.184 2.565c1.299 1.047 3.207.767 5.049.495 1.506-.223 3.21-.473 3.982.16a7.063 7.063 0 004.582 1.477 17.435 17.435 0 008.733-2.909 34.799 34.799 0 014.372 6.044 60.683 60.683 0 01-7.484 1.807c-2.062.304-4.306-1.1-6.282-2.343a16.386 16.386 0 00-3.437-1.822c-3.469-1.112-10.304.487-11.57 4.403-1.308 4.042 2.076 8.524 4.89 9.715a21.91 21.91 0 0010.139 1.529 2.956 2.956 0 013.203 4.264c-.892 2.532.933 6.035 2.4 8.85.338.648.645 1.236.867 1.727.293.732.532 1.485.718 2.252.656 2.382 1.535 5.54 4.004 7.724a34.572 34.572 0 01-27.505 13.636zm-1.24-29.477l-.827-.093a2.913 2.913 0 01-2.215-1.475l-.964-1.735a5.98 5.98 0 00-5.226-3.075h-1.931a2.84 2.84 0 01-2.45-1.7 2.835 2.835 0 00-2.725-1.465h-.006a6.382 6.382 0 00-3.864 2.202c-1.222 1.23-3.285 3.838-3.274 5.808.026 4.032 6.796 7.316 7.873 7.81.155.273.703 1.711.145 7.907-.175 1.944-.331 6.83 1.996 10.214a2.87 2.87 0 002.488 1.32 5.462 5.462 0 001.254-.171 3.55 3.55 0 002.568-3.511c.235-2.212.35-3.692.342-4.401-.02-1.76 1.253-3.487 3.784-5.13 2.712-1.762 4.401-5.865 5.34-8.996a2.735 2.735 0 00-2.309-3.51zm.021 2.822c-1.147 3.83-2.736 6.63-4.354 7.68-3.26 2.12-4.9 4.527-4.87 7.16.007.598-.11 2.063-.327 4.123-.138 1.3-.437 1.368-.729 1.435-.882.201-1.043.114-1.242-.174-1.308-1.904-1.902-5.137-1.585-8.648.702-7.801-.11-9.758-1.541-10.294-1.606-.602-6.454-3.566-6.467-5.651a8.848 8.848 0 012.58-4.112c1.218-1.227 1.981-1.497 2.172-1.497.2-.031.53.022.608.173a5.174 5.174 0 004.57 2.993h1.933a3.592 3.592 0 013.14 1.847l.963 1.736a5.3 5.3 0 004.036 2.687l.824.093a.331.331 0 01.247.15.351.351 0 01.042.3z" fill="#165DED" stroke="#165DED" stroke-width=".977"/></svg>