<svg width="39" height="39" fill="none" xmlns="http://www.w3.org/2000/svg"><path d="M38.017 14.774L29.444 11.1V3.84a.64.64 0 00-.188-.452l-3.2-3.2A.64.64 0 0025.603 0H1.92A1.92 1.92 0 000 1.92v34.565a1.92 1.92 0 001.92 1.92h25.603a1.92 1.92 0 001.92-1.92v-1.591l3.333-2.378a13.468 13.468 0 005.629-10.94v-6.214a.64.64 0 00-.388-.588zM28.163 4.105v.376h-3.2v-3.2h.375l2.825 2.824zm-.64 33.02H1.92a.64.64 0 01-.64-.64V1.92a.64.64 0 01.64-.64h21.763v3.84a.64.64 0 00.64.64h3.84v5.34l-8.573 3.674a.64.64 0 00-.388.588v6.214a13.466 13.466 0 005.63 10.94l3.331 2.378v1.59a.64.64 0 01-.64.64zm9.602-15.55a12.185 12.185 0 01-5.093 9.897l-3.228 2.306-3.229-2.304a12.186 12.186 0 01-5.092-9.898v-5.792l8.32-3.566 8.322 3.566v5.792z" fill="#FFFFFE"/><path d="M28.566 14.127l-6.401 2.56a.64.64 0 00-.402.595v4.039a10.83 10.83 0 004.083 8.497l2.558 2.048a.64.64 0 00.8 0l2.557-2.048a10.829 10.829 0 004.084-8.497v-4.039a.641.641 0 00-.402-.594l-6.401-2.56a.644.644 0 00-.477 0zm5.998 3.588v3.606a9.553 9.553 0 01-3.603 7.497l-2.157 1.727-2.158-1.729a9.551 9.551 0 01-3.603-7.495v-3.606l5.76-2.304 5.761 2.304zM3.2 11.521h17.923a.64.64 0 00.64-.64v-7.68a.64.64 0 00-.64-.64H3.2a.64.64 0 00-.64.64v7.68a.64.64 0 00.64.64zm.64-7.68h16.643v6.4H3.84v-6.4zm13.442 23.042H3.2a.64.64 0 00-.64.64v7.681a.64.64 0 00.64.64h14.082a.64.64 0 00.64-.64v-7.68a.64.64 0 00-.64-.64zm-.64 7.681H3.84v-6.4h12.802v6.4zM2.56 14.722h15.362v1.28H2.56v-1.28zm0 3.84h15.362v1.28H2.56v-1.28zm0 3.841h15.362v1.28H2.56v-1.28z" fill="#FFFFFE"/></svg>