<svg width="9.000000" height="9.000000" viewBox="0 0 9 9" fill="none" xmlns="http://www.w3.org/2000/svg" xmlns:xlink="http://www.w3.org/1999/xlink">
	<desc>
			Created with Pixso.
	</desc>
	<defs>
		<clipPath id="clip481_2060">
			<rect id="free-icon-checkmark-656971 2" rx="0.000000" width="8.000000" height="8.000000" transform="translate(0.500000 0.500000)" fill="white" fill-opacity="0"/>
		</clipPath>
	</defs>
	<rect id="free-icon-checkmark-656971 2" rx="0.000000" width="8.000000" height="8.000000" transform="translate(0.500000 0.500000)" fill="#FFFFFF" fill-opacity="0"/>
	<g clip-path="url(#clip481_2060)">
		<path id="Vector" d="M8.83 1.06C8.64 0.89 8.34 0.91 8.16 1.1L3.12 6.87L0.81 4.41C0.64 4.22 0.33 4.21 0.15 4.39C-0.05 4.56 -0.06 4.87 0.12 5.06L2.79 7.9C2.88 7.99 3 8.05 3.13 8.05L3.14 8.05C3.28 8.05 3.4 7.99 3.49 7.89L8.88 1.73C9.05 1.53 9.03 1.23 8.83 1.06Z" fill="#FFFFFF" fill-opacity="1.000000" fill-rule="nonzero"/>
	</g>
</svg>
