<svg width="47" height="41" viewBox="0 0 47 41" fill="none" xmlns="http://www.w3.org/2000/svg">
<path d="M46.2283 29.0339C45.907 27.8628 44.9249 26.9911 43.7237 26.8109V9.20517H45.2578C45.6814 9.20517 46.0249 8.86167 46.0249 8.43806V0.767235C46.0249 0.343246 45.6814 0.00012207 45.2578 0.00012207H11.5062C11.0826 0.00012207 10.7392 0.343246 10.7392 0.767235V8.43806C10.7392 8.86167 11.0826 9.20517 11.5062 9.20517H13.0404V24.5468H12.2733C10.3695 24.5423 8.5046 25.088 6.90371 26.1185V22.2456C6.90371 21.8216 6.5603 21.4785 6.1367 21.4785H0.767111C0.343506 21.4785 0 21.8216 0 22.2456V39.8885C0 40.3121 0.343506 40.6555 0.767111 40.6555H6.1367C6.5603 40.6555 6.90371 40.3121 6.90371 39.8885V36.016C8.50499 37.0457 10.3695 37.5914 12.2733 37.5872H24.8687C25.7414 37.5857 26.61 37.4711 27.4531 37.2463L44.0612 32.7974C45.6954 32.3521 46.6635 30.6712 46.2283 29.0339ZM12.2733 1.53435H44.4908V7.67095H12.2733V1.53435ZM14.5745 9.20517H42.1895V26.9428L33.2868 29.3302C32.9201 28.4561 32.1721 27.7995 31.2579 27.5488L20.9221 24.7768C20.34 24.6236 19.7408 24.5461 19.1388 24.5468H14.5745V9.20517ZM5.36959 39.1214H1.53413V23.0126H5.36959V39.1214ZM43.663 31.3154L27.058 35.7643C26.3438 35.9549 25.6081 36.052 24.8687 36.053H12.2733C10.447 36.0571 8.66902 35.4646 7.21048 34.3653L6.90371 34.1354V27.9987L7.21048 27.7684C8.66902 26.669 10.447 26.0761 12.2733 26.081H19.1388C19.6074 26.0806 20.0745 26.1413 20.5281 26.2611L30.8605 29.0309C31.4709 29.1991 31.9179 29.7224 31.9875 30.352C31.9957 30.3835 32.0058 30.4146 32.0182 30.4449C32.0092 30.4779 32.0025 30.5112 31.9979 30.5453C31.9987 30.67 31.9818 30.7943 31.9474 30.9142C31.7669 31.5827 31.1612 32.0476 30.4687 32.0487C30.3335 32.0499 30.1994 32.0326 30.069 31.9982L23.5488 30.2498C23.2814 30.1703 22.9918 30.2423 22.7926 30.4378C22.5938 30.6333 22.5162 30.9213 22.5907 31.1902C22.6652 31.4588 22.8799 31.6663 23.1515 31.7311L29.6717 33.4802C29.9319 33.5488 30.2005 33.5832 30.4702 33.5829C31.8493 33.5821 33.0579 32.6596 33.4224 31.3292C33.4651 31.1752 33.4939 31.0179 33.5092 30.8592L42.8608 28.3515C42.9274 28.3346 42.9997 28.3174 43.0679 28.3062C43.8315 28.2077 44.5496 28.6905 44.7469 29.4343C44.7815 29.5639 44.7986 29.6976 44.7975 29.8317C44.7986 30.5261 44.3335 31.1345 43.663 31.3154Z" fill="white"/>
</svg>
