<svg width="46" height="45" viewBox="0 0 46 45" fill="none" xmlns="http://www.w3.org/2000/svg">
<path d="M44.6814 12.9157L23.0846 0.255422C22.8573 0.12281 22.578 0.118395 22.348 0.245665L0.751053 12.1613C0.513564 12.2915 0.366058 12.5418 0.366058 12.8129V44.0911C0.366058 44.5029 0.699693 44.8358 1.11078 44.8358H4.83438C5.24547 44.8358 5.5791 44.5029 5.5791 44.0911V18.026H39.8361V44.0912C39.8361 44.503 40.1691 44.836 40.5809 44.836H44.3045C44.7164 44.836 45.0492 44.503 45.0492 44.0912V13.5577C45.0493 13.2932 44.9093 13.0489 44.6814 12.9157ZM43.5598 43.3464H41.3257V17.2812C41.3257 16.8701 40.9928 16.5365 40.581 16.5365H4.83438C4.4233 16.5365 4.08966 16.8701 4.08966 17.2812V43.3464H1.8555V13.2523L22.6965 1.7538L43.5598 13.9843V43.3464Z" fill="white"/>
<path d="M37.6021 34.4097H28.6655C28.2536 34.4097 27.9208 34.7425 27.9208 35.1544V44.091C27.9208 44.5028 28.2536 44.8357 28.6655 44.8357H37.6021C38.014 44.8357 38.3468 44.5028 38.3468 44.091V35.1544C38.3468 34.7425 38.014 34.4097 37.6021 34.4097ZM36.8574 43.3463H29.4102V35.8991H36.8574V43.3463Z" fill="white"/>
<path d="M33.8785 35.1544V37.3885H32.389V35.1544H30.8996V38.1332C30.8996 38.545 31.2324 38.8779 31.6442 38.8779H34.6231C35.0349 38.8779 35.3678 38.545 35.3678 38.1332V35.1544H33.8785Z" fill="white"/>
<path d="M28.6654 34.4097H19.7288C19.3178 34.4097 18.9842 34.7425 18.9842 35.1544V44.091C18.9842 44.5028 19.3178 44.8357 19.7288 44.8357H28.6654C29.0773 44.8357 29.4101 44.5028 29.4101 44.091V35.1544C29.4101 34.7425 29.0773 34.4097 28.6654 34.4097ZM27.9207 43.3463H20.4735V35.8991H27.9207V43.3463Z" fill="white"/>
<path d="M24.9418 35.1544V37.3885H23.4524V35.1544H21.9628V38.1332C21.9628 38.545 22.2965 38.8779 22.7076 38.8779H25.6864C26.0982 38.8779 26.4312 38.545 26.4312 38.1332V35.1544H24.9418Z" fill="white"/>
<path d="M37.6021 25.473H28.6655C28.2536 25.473 27.9208 25.8058 27.9208 26.2177V35.1544C27.9208 35.5662 28.2536 35.899 28.6655 35.899H37.6021C38.014 35.899 38.3468 35.5662 38.3468 35.1544V26.2177C38.3468 25.8058 38.014 25.473 37.6021 25.473ZM36.8574 34.4097H29.4102V26.9625H36.8574V34.4097Z" fill="white"/>
<path d="M33.8785 26.2179V28.4521H32.389V26.2179H30.8996V29.1968C30.8996 29.6086 31.2324 29.9414 31.6442 29.9414H34.6231C35.0349 29.9414 35.3678 29.6086 35.3678 29.1968V26.2179H33.8785Z" fill="white"/>
<path d="M40.581 22.4942H4.83438V23.9837H40.581V22.4942Z" fill="white"/>
<path d="M40.581 19.5154H4.83438V21.0048H40.581V19.5154Z" fill="white"/>
<path d="M26.4312 10.5787H18.9841C18.5731 10.5787 18.2394 10.9123 18.2394 11.3234V14.3022C18.2394 14.7133 18.5731 15.0469 18.9841 15.0469H26.4312C26.8432 15.0469 27.176 14.7133 27.176 14.3022V11.3234C27.176 10.9123 26.8432 10.5787 26.4312 10.5787ZM25.6865 13.5577H19.7287V12.0681H25.6865V13.5577Z" fill="white"/>
</svg>
