<svg width="76" height="75" viewBox="0 0 76 75" fill="none" xmlns="http://www.w3.org/2000/svg">
<mask id="path-1-outside-1" maskUnits="userSpaceOnUse" x="0" y="0" width="76" height="75" fill="black">
<rect fill="white" width="76" height="75"/>
<path fill-rule="evenodd" clip-rule="evenodd" d="M37.1595 1.21507C37.6825 0.928311 38.3175 0.928311 38.8405 1.21507L74.1034 20.5484C74.6566 20.8517 75 21.429 75 22.0559V72.2774C75 73.2288 74.2223 74 73.2629 74H68.6596C67.7003 74 66.9225 73.2288 66.9225 72.2774V41.5H9.07747V72.2774C9.07747 73.2288 8.29974 74 7.34038 74H2.73709C1.77772 74 1 73.2288 1 72.2774V22.0559C1 21.429 1.34339 20.8517 1.89659 20.5484L37.1595 1.21507ZM66.9225 39.7774V35.7226H9.07747V39.7774H66.9225ZM66.9225 34V29.644H9.07747V34H66.9225ZM38 2.72256L2.73709 22.0559L2.73709 72.2774H7.34038V29.644C7.34038 28.6926 8.1181 27.9214 9.07747 27.9214H66.9225C67.8819 27.9214 68.6596 28.6926 68.6596 29.644V72.2774H73.2629V22.0559L38 2.72256ZM32.7284 16.9512V21.0488H43.2716V16.9512H32.7284ZM31.8642 15C31.3869 15 31 15.4368 31 15.9756V22.0244C31 22.5632 31.3869 23 31.8642 23H44.1358C44.6131 23 45 22.5632 45 22.0244V15.9756C45 15.4368 44.6131 15 44.1358 15H31.8642ZM37.3979 62.3978V72.6021H47.6021V62.3978H37.3979ZM36.6989 61C36.3129 61 36 61.3129 36 61.6989V73.3011C36 73.6871 36.3129 74 36.6989 74H48.3011C48.6871 74 49 73.6871 49 73.3011V61.6989C49 61.3129 48.6871 61 48.3011 61H36.6989ZM41 63H44V65.3721C44 65.7189 43.7533 66 43.449 66H41.551C41.2467 66 41 65.7189 41 65.3721V63ZM41.6122 63.6977V65.3023H43.3878V63.6977H41.6122ZM52.3979 72.6021V62.3978H62.6021V72.6021H52.3979ZM51 61.6989C51 61.3129 51.3129 61 51.6989 61H63.3011C63.6871 61 64 61.3129 64 61.6989V73.3011C64 73.6871 63.6871 74 63.3011 74H51.6989C51.3129 74 51 73.6871 51 73.3011V61.6989ZM59 63H56V65.3721C56 65.7189 56.2467 66 56.551 66H58.449C58.7533 66 59 65.7189 59 65.3721V63ZM56.6122 65.3023V63.6977H58.3878V65.3023H56.6122ZM52.3979 47.3978V57.6021H62.6021V47.3978H52.3979ZM51.6989 46C51.3129 46 51 46.3129 51 46.6989V58.3011C51 58.6871 51.3129 59 51.6989 59H63.3011C63.6871 59 64 58.6871 64 58.3011V46.6989C64 46.3129 63.6871 46 63.3011 46H51.6989ZM56 48H59V50.3721C59 50.7189 58.7533 51 58.449 51H56.551C56.2467 51 56 50.7189 56 50.3721V48ZM56.6122 48.6977V50.3023H58.3878V48.6977H56.6122Z"/>
</mask>
<path fill-rule="evenodd" clip-rule="evenodd" d="M37.1595 1.21507C37.6825 0.928311 38.3175 0.928311 38.8405 1.21507L74.1034 20.5484C74.6566 20.8517 75 21.429 75 22.0559V72.2774C75 73.2288 74.2223 74 73.2629 74H68.6596C67.7003 74 66.9225 73.2288 66.9225 72.2774V41.5H9.07747V72.2774C9.07747 73.2288 8.29974 74 7.34038 74H2.73709C1.77772 74 1 73.2288 1 72.2774V22.0559C1 21.429 1.34339 20.8517 1.89659 20.5484L37.1595 1.21507ZM66.9225 39.7774V35.7226H9.07747V39.7774H66.9225ZM66.9225 34V29.644H9.07747V34H66.9225ZM38 2.72256L2.73709 22.0559L2.73709 72.2774H7.34038V29.644C7.34038 28.6926 8.1181 27.9214 9.07747 27.9214H66.9225C67.8819 27.9214 68.6596 28.6926 68.6596 29.644V72.2774H73.2629V22.0559L38 2.72256ZM32.7284 16.9512V21.0488H43.2716V16.9512H32.7284ZM31.8642 15C31.3869 15 31 15.4368 31 15.9756V22.0244C31 22.5632 31.3869 23 31.8642 23H44.1358C44.6131 23 45 22.5632 45 22.0244V15.9756C45 15.4368 44.6131 15 44.1358 15H31.8642ZM37.3979 62.3978V72.6021H47.6021V62.3978H37.3979ZM36.6989 61C36.3129 61 36 61.3129 36 61.6989V73.3011C36 73.6871 36.3129 74 36.6989 74H48.3011C48.6871 74 49 73.6871 49 73.3011V61.6989C49 61.3129 48.6871 61 48.3011 61H36.6989ZM41 63H44V65.3721C44 65.7189 43.7533 66 43.449 66H41.551C41.2467 66 41 65.7189 41 65.3721V63ZM41.6122 63.6977V65.3023H43.3878V63.6977H41.6122ZM52.3979 72.6021V62.3978H62.6021V72.6021H52.3979ZM51 61.6989C51 61.3129 51.3129 61 51.6989 61H63.3011C63.6871 61 64 61.3129 64 61.6989V73.3011C64 73.6871 63.6871 74 63.3011 74H51.6989C51.3129 74 51 73.6871 51 73.3011V61.6989ZM59 63H56V65.3721C56 65.7189 56.2467 66 56.551 66H58.449C58.7533 66 59 65.7189 59 65.3721V63ZM56.6122 65.3023V63.6977H58.3878V65.3023H56.6122ZM52.3979 47.3978V57.6021H62.6021V47.3978H52.3979ZM51.6989 46C51.3129 46 51 46.3129 51 46.6989V58.3011C51 58.6871 51.3129 59 51.6989 59H63.3011C63.6871 59 64 58.6871 64 58.3011V46.6989C64 46.3129 63.6871 46 63.3011 46H51.6989ZM56 48H59V50.3721C59 50.7189 58.7533 51 58.449 51H56.551C56.2467 51 56 50.7189 56 50.3721V48ZM56.6122 48.6977V50.3023H58.3878V48.6977H56.6122Z" fill="#165DED"/>
<path d="M38.8405 1.21507L39.3212 0.338207V0.338207L38.8405 1.21507ZM37.1595 1.21507L36.6787 0.338207V0.338207L37.1595 1.21507ZM74.1034 20.5484L73.6227 21.4252H73.6227L74.1034 20.5484ZM66.9225 41.5H67.9225V40.5H66.9225V41.5ZM9.07747 41.5V40.5H8.07747V41.5H9.07747ZM1.89659 20.5484L1.41584 19.6715L1.41584 19.6715L1.89659 20.5484ZM66.9225 35.7226H67.9225V34.7226H66.9225V35.7226ZM66.9225 39.7774V40.7774H67.9225V39.7774H66.9225ZM9.07747 35.7226V34.7226H8.07747V35.7226H9.07747ZM9.07747 39.7774H8.07747V40.7774H9.07747V39.7774ZM66.9225 29.644H67.9225V28.644H66.9225V29.644ZM66.9225 34V35H67.9225V34H66.9225ZM9.07747 29.644V28.644H8.07747V29.644H9.07747ZM9.07747 34H8.07747V35H9.07747V34ZM2.73709 22.0559L2.25634 21.179L1.73709 21.4637V22.0559H2.73709ZM38 2.72256L38.4807 1.84571L38 1.58213L37.5193 1.84571L38 2.72256ZM2.73709 72.2774H1.73709V73.2774H2.73709V72.2774ZM7.34038 72.2774V73.2774H8.34038V72.2774H7.34038ZM68.6596 72.2774H67.6596V73.2774H68.6596V72.2774ZM73.2629 72.2774V73.2774H74.2629V72.2774H73.2629ZM73.2629 22.0559H74.2629V21.4637L73.7437 21.179L73.2629 22.0559ZM32.7284 21.0488H31.7284V22.0488H32.7284V21.0488ZM32.7284 16.9512V15.9512H31.7284V16.9512H32.7284ZM43.2716 21.0488V22.0488H44.2716V21.0488H43.2716ZM43.2716 16.9512H44.2716V15.9512H43.2716V16.9512ZM37.3979 72.6021H36.3979V73.6021H37.3979V72.6021ZM37.3979 62.3978V61.3978H36.3979V62.3978H37.3979ZM47.6021 72.6021V73.6021H48.6021V72.6021H47.6021ZM47.6021 62.3978H48.6021V61.3978H47.6021V62.3978ZM44 63H45V62H44V63ZM41 63V62H40V63H41ZM41.6122 65.3023H40.6122V66.3023H41.6122V65.3023ZM41.6122 63.6977V62.6977H40.6122V63.6977H41.6122ZM43.3878 65.3023V66.3023H44.3878V65.3023H43.3878ZM43.3878 63.6977H44.3878V62.6977H43.3878V63.6977ZM52.3979 62.3978V61.3978H51.3979V62.3978H52.3979ZM52.3979 72.6021H51.3979V73.6021H52.3979V72.6021ZM62.6021 62.3978H63.6021V61.3978H62.6021V62.3978ZM62.6021 72.6021V73.6021H63.6021V72.6021H62.6021ZM56 63V62H55V63H56ZM59 63H60V62H59V63ZM56.6122 63.6977V62.6977H55.6122V63.6977H56.6122ZM56.6122 65.3023H55.6122V66.3023H56.6122V65.3023ZM58.3878 63.6977H59.3878V62.6977H58.3878V63.6977ZM58.3878 65.3023V66.3023H59.3878V65.3023H58.3878ZM52.3979 57.6021H51.3979V58.6021H52.3979V57.6021ZM52.3979 47.3978V46.3978H51.3979V47.3978H52.3979ZM62.6021 57.6021V58.6021H63.6021V57.6021H62.6021ZM62.6021 47.3978H63.6021V46.3978H62.6021V47.3978ZM59 48H60V47H59V48ZM56 48V47H55V48H56ZM56.6122 50.3023H55.6122V51.3023H56.6122V50.3023ZM56.6122 48.6977V47.6977H55.6122V48.6977H56.6122ZM58.3878 50.3023V51.3023H59.3878V50.3023H58.3878ZM58.3878 48.6977H59.3878V47.6977H58.3878V48.6977ZM39.3212 0.338207C38.4988 -0.112736 37.5012 -0.112736 36.6787 0.338207L37.6402 2.09192C37.8638 1.96936 38.1362 1.96936 38.3598 2.09192L39.3212 0.338207ZM74.5842 19.6715L39.3212 0.338207L38.3598 2.09192L73.6227 21.4252L74.5842 19.6715ZM76 22.0559C76 21.0609 75.455 20.1489 74.5842 19.6715L73.6227 21.4252C73.8583 21.5544 74 21.7972 74 22.0559H76ZM76 72.2774V22.0559H74V72.2774H76ZM73.2629 75C74.7666 75 76 73.789 76 72.2774H74C74 72.6686 73.6779 73 73.2629 73V75ZM68.6596 75H73.2629V73H68.6596V75ZM65.9225 72.2774C65.9225 73.789 67.1559 75 68.6596 75V73C68.2446 73 67.9225 72.6686 67.9225 72.2774H65.9225ZM65.9225 41.5V72.2774H67.9225V41.5H65.9225ZM9.07747 42.5H66.9225V40.5H9.07747V42.5ZM10.0775 72.2774V41.5H8.07747V72.2774H10.0775ZM7.34038 75C8.84409 75 10.0775 73.789 10.0775 72.2774H8.07747C8.07747 72.6686 7.75539 73 7.34038 73V75ZM2.73709 75H7.34038V73H2.73709V75ZM0 72.2774C0 73.789 1.23337 75 2.73709 75V73C2.32207 73 2 72.6686 2 72.2774H0ZM0 22.0559V72.2774H2V22.0559H0ZM1.41584 19.6715C0.54503 20.1489 0 21.0609 0 22.0559H2C2 21.7972 2.14174 21.5544 2.37734 21.4252L1.41584 19.6715ZM36.6787 0.338207L1.41584 19.6715L2.37734 21.4252L37.6402 2.09192L36.6787 0.338207ZM65.9225 35.7226V39.7774H67.9225V35.7226H65.9225ZM9.07747 36.7226H66.9225V34.7226H9.07747V36.7226ZM10.0775 39.7774V35.7226H8.07747V39.7774H10.0775ZM66.9225 38.7774H9.07747V40.7774H66.9225V38.7774ZM65.9225 29.644V34H67.9225V29.644H65.9225ZM9.07747 30.644H66.9225V28.644H9.07747V30.644ZM10.0775 34V29.644H8.07747V34H10.0775ZM66.9225 33H9.07747V35H66.9225V33ZM3.21784 22.9327L38.4807 3.59942L37.5193 1.84571L2.25634 21.179L3.21784 22.9327ZM3.73709 72.2774L3.73709 22.0559H1.73709L1.73709 72.2774H3.73709ZM7.34038 71.2774H2.73709V73.2774H7.34038V71.2774ZM6.34038 29.644V72.2774H8.34038V29.644H6.34038ZM9.07747 26.9214C7.57375 26.9214 6.34038 28.1324 6.34038 29.644H8.34038C8.34038 29.2528 8.66245 28.9214 9.07747 28.9214V26.9214ZM66.9225 26.9214H9.07747V28.9214H66.9225V26.9214ZM69.6596 29.644C69.6596 28.1324 68.4262 26.9214 66.9225 26.9214V28.9214C67.3375 28.9214 67.6596 29.2528 67.6596 29.644H69.6596ZM69.6596 72.2774V29.644H67.6596V72.2774H69.6596ZM73.2629 71.2774H68.6596V73.2774H73.2629V71.2774ZM72.2629 22.0559V72.2774H74.2629V22.0559H72.2629ZM37.5193 3.59942L72.7822 22.9327L73.7437 21.179L38.4807 1.84571L37.5193 3.59942ZM33.7284 21.0488V16.9512H31.7284V21.0488H33.7284ZM43.2716 20.0488H32.7284V22.0488H43.2716V20.0488ZM42.2716 16.9512V21.0488H44.2716V16.9512H42.2716ZM32.7284 17.9512H43.2716V15.9512H32.7284V17.9512ZM32 15.9756C32 15.9448 32.011 15.9382 32.0017 15.9488C31.9965 15.9547 31.9833 15.9673 31.9587 15.9791C31.9329 15.9914 31.8998 16 31.8642 16V14C30.7241 14 30 15.0019 30 15.9756H32ZM32 22.0244V15.9756H30V22.0244H32ZM31.8642 22C31.8998 22 31.9329 22.0086 31.9587 22.0209C31.9833 22.0326 31.9965 22.0453 32.0017 22.0512C32.011 22.0617 32 22.0552 32 22.0244H30C30 22.998 30.7241 24 31.8642 24V22ZM44.1358 22H31.8642V24H44.1358V22ZM44 22.0244C44 22.0552 43.989 22.0617 43.9983 22.0512C44.0035 22.0453 44.0167 22.0326 44.0413 22.0209C44.0671 22.0086 44.1002 22 44.1358 22V24C45.2759 24 46 22.998 46 22.0244H44ZM44 15.9756V22.0244H46V15.9756H44ZM44.1358 16C44.1002 16 44.0671 15.9914 44.0413 15.9791C44.0167 15.9673 44.0035 15.9547 43.9983 15.9488C43.989 15.9382 44 15.9448 44 15.9756H46C46 15.0019 45.2759 14 44.1358 14V16ZM31.8642 16H44.1358V14H31.8642V16ZM38.3979 72.6021V62.3978H36.3979V72.6021H38.3979ZM47.6021 71.6021H37.3979V73.6021H47.6021V71.6021ZM46.6021 62.3978V72.6021H48.6021V62.3978H46.6021ZM37.3979 63.3978H47.6021V61.3978H37.3979V63.3978ZM37 61.6989C37 61.8652 36.8652 62 36.6989 62V60C35.7606 60 35 60.7606 35 61.6989H37ZM37 73.3011V61.6989H35V73.3011H37ZM36.6989 73C36.8652 73 37 73.1348 37 73.3011H35C35 74.2393 35.7606 75 36.6989 75V73ZM48.3011 73H36.6989V75H48.3011V73ZM48 73.3011C48 73.1348 48.1348 73 48.3011 73V75C49.2394 75 50 74.2393 50 73.3011H48ZM48 61.6989V73.3011H50V61.6989H48ZM48.3011 62C48.1348 62 48 61.8652 48 61.6989H50C50 60.7606 49.2394 60 48.3011 60V62ZM36.6989 62H48.3011V60H36.6989V62ZM44 62H41V64H44V62ZM45 65.3721V63H43V65.3721H45ZM43.449 67C44.4243 67 45 66.1444 45 65.3721H43C43 65.3095 43.0222 65.2303 43.087 65.1565C43.1535 65.0807 43.2793 65 43.449 65V67ZM41.551 67H43.449V65H41.551V67ZM40 65.3721C40 66.1444 40.5757 67 41.551 67V65C41.7207 65 41.8465 65.0807 41.913 65.1565C41.9778 65.2303 42 65.3095 42 65.3721H40ZM40 63V65.3721H42V63H40ZM42.6122 65.3023V63.6977H40.6122V65.3023H42.6122ZM43.3878 64.3023H41.6122V66.3023H43.3878V64.3023ZM42.3878 63.6977V65.3023H44.3878V63.6977H42.3878ZM41.6122 64.6977H43.3878V62.6977H41.6122V64.6977ZM51.3979 62.3978V72.6021H53.3979V62.3978H51.3979ZM62.6021 61.3978H52.3979V63.3978H62.6021V61.3978ZM63.6021 72.6021V62.3978H61.6021V72.6021H63.6021ZM52.3979 73.6021H62.6021V71.6021H52.3979V73.6021ZM51.6989 60C50.7606 60 50 60.7606 50 61.6989H52C52 61.8652 51.8652 62 51.6989 62V60ZM63.3011 60H51.6989V62H63.3011V60ZM65 61.6989C65 60.7606 64.2394 60 63.3011 60V62C63.1348 62 63 61.8652 63 61.6989H65ZM65 73.3011V61.6989H63V73.3011H65ZM63.3011 75C64.2394 75 65 74.2393 65 73.3011H63C63 73.1348 63.1348 73 63.3011 73V75ZM51.6989 75H63.3011V73H51.6989V75ZM50 73.3011C50 74.2393 50.7606 75 51.6989 75V73C51.8652 73 52 73.1348 52 73.3011H50ZM50 61.6989V73.3011H52V61.6989H50ZM56 64H59V62H56V64ZM57 65.3721V63H55V65.3721H57ZM56.551 65C56.7207 65 56.8465 65.0807 56.913 65.1565C56.9778 65.2303 57 65.3095 57 65.3721H55C55 66.1444 55.5757 67 56.551 67V65ZM58.449 65H56.551V67H58.449V65ZM58 65.3721C58 65.3095 58.0222 65.2303 58.087 65.1565C58.1535 65.0807 58.2793 65 58.449 65V67C59.4243 67 60 66.1444 60 65.3721H58ZM58 63V65.3721H60V63H58ZM55.6122 63.6977V65.3023H57.6122V63.6977H55.6122ZM58.3878 62.6977H56.6122V64.6977H58.3878V62.6977ZM59.3878 65.3023V63.6977H57.3878V65.3023H59.3878ZM56.6122 66.3023H58.3878V64.3023H56.6122V66.3023ZM53.3979 57.6021V47.3978H51.3979V57.6021H53.3979ZM62.6021 56.6021H52.3979V58.6021H62.6021V56.6021ZM61.6021 47.3978V57.6021H63.6021V47.3978H61.6021ZM52.3979 48.3978H62.6021V46.3978H52.3979V48.3978ZM52 46.6989C52 46.8652 51.8652 47 51.6989 47V45C50.7606 45 50 45.7606 50 46.6989H52ZM52 58.3011V46.6989H50V58.3011H52ZM51.6989 58C51.8652 58 52 58.1348 52 58.3011H50C50 59.2393 50.7606 60 51.6989 60V58ZM63.3011 58H51.6989V60H63.3011V58ZM63 58.3011C63 58.1348 63.1348 58 63.3011 58V60C64.2394 60 65 59.2393 65 58.3011H63ZM63 46.6989V58.3011H65V46.6989H63ZM63.3011 47C63.1348 47 63 46.8652 63 46.6989H65C65 45.7606 64.2394 45 63.3011 45V47ZM51.6989 47H63.3011V45H51.6989V47ZM59 47H56V49H59V47ZM60 50.3721V48H58V50.3721H60ZM58.449 52C59.4243 52 60 51.1444 60 50.3721H58C58 50.3095 58.0222 50.2303 58.087 50.1565C58.1535 50.0807 58.2793 50 58.449 50V52ZM56.551 52H58.449V50H56.551V52ZM55 50.3721C55 51.1444 55.5757 52 56.551 52V50C56.7207 50 56.8465 50.0807 56.913 50.1565C56.9778 50.2303 57 50.3095 57 50.3721H55ZM55 48V50.3721H57V48H55ZM57.6122 50.3023V48.6977H55.6122V50.3023H57.6122ZM58.3878 49.3023H56.6122V51.3023H58.3878V49.3023ZM57.3878 48.6977V50.3023H59.3878V48.6977H57.3878ZM56.6122 49.6977H58.3878V47.6977H56.6122V49.6977Z" fill="#165DED" mask="url(#path-1-outside-1)"/>
</svg>
