<svg width="40" height="41" viewBox="0 0 40 41" fill="none" xmlns="http://www.w3.org/2000/svg">
<path d="M38.1886 23.8802H37.5786V18.3847C37.5786 17.5147 37.1455 16.7443 36.4842 16.2762V15.528C36.4842 14.4425 35.6012 13.5595 34.5158 13.5595H34.0602L35.8032 11.0019C36.3875 10.1446 36.1653 8.97167 35.308 8.38743L23.4806 0.327391C23.0654 0.0442449 22.5648 -0.0602055 22.0708 0.0334908C21.577 0.127094 21.1492 0.407341 20.8661 0.822615L10.6576 15.8027H7.81691L8.50224 8.8646C8.51 8.78643 8.56078 8.71863 8.63166 8.69198C9.51466 8.35909 10.2799 7.73735 10.7863 6.9413C10.8262 6.87865 10.9015 6.84284 10.9794 6.85069L15.435 7.29093C15.7544 7.32189 16.0386 7.08924 16.0702 6.7699C16.1017 6.45057 15.8685 6.16621 15.5492 6.13469L11.0936 5.69454C10.5764 5.64386 10.0831 5.88222 9.80604 6.3176C9.43368 6.90287 8.87104 7.35994 8.2218 7.60475C7.73312 7.78896 7.39752 8.2279 7.34599 8.75033L6.64935 15.8026H5.90857L6.99253 4.82939C7.03152 4.43441 7.38406 4.14425 7.77951 4.1839L16.7834 5.07336C17.1028 5.10413 17.3871 4.87166 17.4186 4.55233C17.4501 4.23299 17.2169 3.94863 16.8976 3.91712L7.89368 3.02766C6.86134 2.92583 5.93821 3.68269 5.83619 4.71513L4.96254 13.5595H3.47462C2.38925 13.5595 1.50625 14.4425 1.50625 15.528V16.0384C0.618284 16.4472 0 17.3448 0 18.3847V38.188C0 39.6118 1.1583 40.7701 2.58217 40.7701H34.9965C36.4203 40.7701 37.5786 39.6118 37.5786 38.188V32.6925H38.1886C38.9088 32.6925 39.4947 32.1066 39.4947 31.3866V25.1863C39.4948 24.4661 38.9088 23.8802 38.1886 23.8802ZM34.5158 14.7215C34.9606 14.7214 35.3224 15.0832 35.3224 15.5281V15.824C35.2155 15.8105 35.1069 15.8028 34.9965 15.8028H32.5316L33.2684 14.7215H34.5158ZM21.8263 1.4769C21.9346 1.31803 22.0982 1.21087 22.2871 1.17496C22.3323 1.16645 22.3775 1.16215 22.4225 1.16215C22.5657 1.16215 22.7055 1.20498 22.8264 1.28736L34.6537 9.34739C34.9816 9.57088 35.0666 10.0195 34.8432 10.3475L31.1257 15.8025H30.2335L32.0561 13.1281C32.3517 12.6943 32.3761 12.1423 32.1195 11.6874C31.7786 11.083 31.6403 10.3713 31.7303 9.68346C31.7972 9.17169 31.572 8.67207 31.1426 8.37947L25.0113 4.2012C24.5819 3.90861 24.0345 3.88177 23.5828 4.13125C22.9755 4.46649 22.2626 4.59805 21.5754 4.50193C21.0658 4.43039 20.5489 4.66052 20.2578 5.08776L12.9558 15.8026H12.0636L21.8263 1.4769ZM22.0821 11.3422C19.5522 11.3422 17.4755 13.3148 17.3063 15.8026H14.3617L21.2176 5.74205C21.2177 5.74205 21.2177 5.74205 21.2177 5.74205C21.2567 5.68482 21.3212 5.65069 21.3875 5.65069C21.3964 5.65069 21.4053 5.65134 21.4141 5.65256C22.3488 5.78328 23.3182 5.6044 24.1442 5.14845C24.2092 5.11245 24.2926 5.11759 24.3569 5.16135L30.4883 9.33972C30.5525 9.38358 30.5877 9.45932 30.5782 9.53291C30.4558 10.4685 30.6439 11.4363 31.1075 12.2582C31.1448 12.3243 31.1402 12.4088 31.0961 12.4737L28.8276 15.8025H26.8582C26.6888 13.3148 24.6122 11.3422 22.0821 11.3422ZM25.6931 15.8027H18.4712C18.6376 13.9562 20.193 12.5042 22.0821 12.5042C23.9712 12.5041 25.5268 13.9562 25.6931 15.8027ZM2.6681 15.528C2.6681 15.0832 3.02979 14.7214 3.47462 14.7214H4.8478L4.74101 15.8026H2.6681V15.528ZM1.16185 18.3847C1.16185 17.6015 1.79903 16.9645 2.58217 16.9645H34.9965C35.7796 16.9645 36.4167 17.6015 36.4167 18.3847V19.9967H1.16185V18.3847ZM36.4167 38.188C36.4167 38.971 35.7796 39.6082 34.9965 39.6082H2.58217C1.79903 39.6082 1.16185 38.971 1.16185 38.188V36.576H4.2947C4.61553 36.576 4.87558 36.3159 4.87558 35.9951C4.87558 35.6743 4.61553 35.4142 4.2947 35.4142H1.16185V21.1586H36.4167V23.8802H30.8931H30.893C29.1526 23.8802 27.6452 24.8947 26.9296 26.3632C26.9273 26.3681 26.9246 26.3729 26.9221 26.3779C26.9161 26.3903 26.9109 26.4033 26.905 26.4159C26.8197 26.5969 26.7456 26.7843 26.6854 26.9775C26.6852 26.9781 26.685 26.9787 26.6849 26.9792C26.5563 27.3923 26.487 27.8314 26.487 28.2864C26.487 30.7159 28.4635 32.6925 30.8929 32.6925H30.893H36.4166V35.4142H8.01449C7.69357 35.4142 7.43352 35.6743 7.43352 35.9951C7.43352 36.3159 7.69366 36.576 8.01449 36.576H36.4167V38.188ZM38.3329 31.3865C38.3329 31.466 38.2682 31.5306 38.1886 31.5306H30.8932C29.6634 31.5306 28.591 30.8427 28.0411 29.8315C28.016 29.7855 27.9922 29.7389 27.9693 29.6916C27.9237 29.5971 27.8825 29.5 27.8461 29.4007C27.7186 29.0531 27.649 28.6776 27.649 28.2864C27.649 27.8951 27.7187 27.5197 27.8461 27.172C27.8826 27.0727 27.9237 26.9757 27.9693 26.881C27.9922 26.8338 28.016 26.7872 28.0411 26.7412C28.591 25.73 29.6634 25.0421 30.8932 25.0421H38.1886C38.2681 25.0421 38.3329 25.1068 38.3329 25.1863V31.3865Z" fill="#FFFFFE"/>
<path d="M31.0293 25.9294C29.7296 25.9294 28.6723 26.9868 28.6723 28.2864C28.6723 29.5861 29.7296 30.6434 31.0293 30.6434C32.329 30.6434 33.3863 29.5861 33.3863 28.2864C33.3863 26.9868 32.329 25.9294 31.0293 25.9294ZM31.0293 29.4815C30.3703 29.4815 29.8342 28.9454 29.8342 28.2864C29.8342 27.6276 30.3703 27.0913 31.0293 27.0913C31.6884 27.0913 32.2244 27.6275 32.2244 28.2864C32.2244 28.9455 31.6884 29.4815 31.0293 29.4815Z" fill="#FFFFFE"/>
</svg>
