<svg width="76" height="76" viewBox="0 0 76 76" fill="none" xmlns="http://www.w3.org/2000/svg">
<path d="M68.204 59.3319C72.1012 53.8367 74.4185 47.3788 74.9041 40.6594C75.3897 33.94 74.025 27.216 70.9584 21.2175L70.9567 21.2055C70.9398 21.1715 70.9211 21.1385 70.9007 21.1065C69.309 18.0204 67.2924 15.1726 64.91 12.6462C64.9066 12.6393 64.9066 12.6316 64.9014 12.6256C64.8303 12.5267 64.744 12.4396 64.6459 12.3674C61.8476 9.4586 58.5946 7.02458 55.0144 5.16086C54.9575 5.12506 54.8977 5.09425 54.8355 5.06878C49.8706 2.51994 44.3917 1.13175 38.8122 1.00893C33.2326 0.886104 27.698 2.03185 22.6257 4.35974C22.567 4.38092 22.51 4.40682 22.4554 4.43719C14.1916 8.28673 7.62809 15.0355 4.00999 23.4032C3.99536 23.429 3.98761 23.4548 3.97557 23.4797C0.396877 31.8539 0.0333811 41.254 2.9547 49.8795C5.87603 58.505 11.8768 65.7496 19.8076 70.2256C27.7386 74.7012 37.0421 76.0931 45.9356 74.1345C54.8291 72.176 62.6872 67.0047 68.0043 59.6115C68.0646 59.5548 68.1188 59.4911 68.167 59.4222C68.185 59.3938 68.1868 59.362 68.2031 59.3319H68.204ZM66.8995 57.0198C65.0967 55.2945 64.3868 52.7354 63.8034 50.6203C63.5861 49.7325 63.3037 48.8619 62.9584 48.0156C62.6655 47.3933 62.3571 46.7785 62.0334 46.1716C60.9139 44.0213 59.2222 40.7721 59.7695 39.2172C60.1577 38.3477 60.3055 37.39 60.1975 36.444C60.0896 35.4979 59.7298 34.5982 59.1557 33.8385C58.5816 33.0789 57.8142 32.4872 56.9335 32.1251C56.0529 31.763 55.0912 31.6438 54.1488 31.78C51.0702 32.0511 47.9711 31.5897 45.1051 30.4333C43.1113 29.5892 40.7278 26.2144 41.5556 23.6518C42.3558 21.1805 47.6994 20.012 50.1269 20.7864C51.1468 21.2027 52.1178 21.7299 53.0224 22.3585C55.2339 23.7491 57.9909 25.4812 60.9303 25.0398C63.7283 24.5497 66.491 23.8756 69.2004 23.022C71.7884 28.4043 72.9368 34.3657 72.5335 40.3243C72.1303 46.2829 70.1891 52.0352 66.8995 57.0198ZM61.9689 13.0644C57.7646 15.5039 53.8975 16.0606 51.8848 14.4128C50.2973 13.1117 48.0376 13.4439 46.0421 13.7382C44.8323 13.9146 43.3265 14.1374 42.8368 13.7451C42.6356 13.5007 42.5298 13.1916 42.5391 12.8751C42.5182 12.6686 42.5418 12.4599 42.6083 12.2633C42.6748 12.0666 42.7826 11.8865 42.9246 11.735C43.7309 10.8392 45.7599 10.2463 48.3526 10.1508C50.6415 9.97579 52.8197 9.09488 54.5868 7.62959C57.2764 9.10769 59.7587 10.9352 61.9689 13.0644ZM23.1799 6.72866C24.4378 7.04697 25.6081 7.64361 26.6046 8.47459C26.8198 10.5776 29.1525 10.4219 30.6971 10.3264C31.6656 10.1487 32.664 10.234 33.5883 10.5733C32.9917 11.0508 32.3607 11.4836 31.7004 11.8683C30.0199 12.9121 27.9289 14.2123 27.065 16.0469C25.9042 18.5096 20.3739 22.8094 15.2135 22.195C14.4855 22.1064 12.2775 21.8397 11.3267 23.392C10.2631 25.1267 11.6795 27.5154 13.2232 29.8138C13.3815 30.0496 13.5141 30.2466 13.6001 30.3894C13.7583 30.7323 13.8356 31.1069 13.8261 31.4844C13.8165 31.8618 13.7204 32.2321 13.545 32.5665C13.4977 32.6215 13.3833 32.7541 12.8739 32.5579C9.98176 31.4573 7.44419 27.543 6.32125 24.0855C9.68535 16.4707 15.6662 10.313 23.1799 6.72866ZM38.0009 72.6144C29.7676 72.6175 21.8031 69.6844 15.5385 64.342C9.2738 58.9997 5.11963 51.5984 3.8224 43.468C2.96209 38.0792 3.38845 32.5634 5.06666 27.3709C6.59833 30.5874 9.03609 33.6516 12.0228 34.7891C12.4393 34.9543 12.8833 35.0412 13.3308 35.0473C13.721 35.0533 14.1075 34.971 14.4615 34.8065C14.8154 34.6419 15.1275 34.3995 15.3744 34.0973C15.873 33.3798 16.1622 32.5378 16.2097 31.6655C16.2573 30.7931 16.0613 29.9247 15.6438 29.1572C15.5016 28.9296 15.3547 28.705 15.2032 28.4835C13.3557 25.7299 13.2585 24.8892 13.3488 24.6543C13.3523 24.6526 13.6646 24.4134 14.9261 24.5648C21.027 25.3074 27.5856 20.5403 29.2231 17.064C29.7876 15.8679 31.5464 14.7742 32.9602 13.8957C34.7973 12.7538 36.8788 11.4605 35.8703 9.63108C34.7879 7.66917 32.338 7.83095 30.5431 7.94453C30.0087 7.9953 29.4718 8.00476 28.9357 7.97293C28.6969 7.39153 28.3416 6.86516 27.8918 6.42623C27.4419 5.98731 26.9069 5.64511 26.3198 5.42072C34.7394 2.39549 44.0048 2.75737 52.1628 6.43007C51.0021 7.20869 49.6574 7.66891 48.2631 7.76469C45.9139 7.85074 42.7732 8.33433 41.1494 10.1396C40.7942 10.5292 40.5227 10.9876 40.3519 11.4865C40.1811 11.9853 40.1145 12.5139 40.1564 13.0395C40.1606 13.5265 40.2682 14.007 40.4722 14.4492C40.6762 14.8915 40.9719 15.2853 41.3396 15.6046C42.6389 16.6518 44.5475 16.3721 46.3889 16.1002C47.8948 15.8773 49.5985 15.6269 50.3713 16.2594C51.6784 17.2733 53.3001 17.7962 54.9533 17.7369C58.0723 17.5672 61.0885 16.5627 63.6864 14.8284C65.3558 16.6804 66.8213 18.7064 68.0577 20.8716C65.6039 21.6317 63.1043 22.2353 60.574 22.6786C58.5123 22.9832 56.2682 21.5798 54.2916 20.3364C53.2225 19.5946 52.0687 18.9828 50.8548 18.5139C47.3862 17.4021 40.5514 19.0009 39.2848 22.917C37.9768 26.9587 41.3611 31.441 44.1749 32.6319C47.3861 33.9364 50.8609 34.4604 54.314 34.161C54.8607 34.0516 55.4271 34.0991 55.948 34.2979C56.4689 34.4967 56.9229 34.8387 57.2578 35.2845C57.5926 35.7302 57.7946 36.2616 57.8404 36.8172C57.8862 37.3728 57.774 37.9301 57.5167 38.4247C56.6253 40.9571 58.4504 44.4601 59.9166 47.2748C60.2548 47.9227 60.562 48.5113 60.784 49.0018C61.0766 49.734 61.3158 50.487 61.5025 51.2537C62.1582 53.6355 63.0368 56.7943 65.5063 58.9782C62.2815 63.216 58.1214 66.6515 53.3503 69.0169C48.5792 71.3822 43.3261 72.6134 38.0009 72.6144ZM36.7601 43.1367L35.934 43.0438C35.4742 42.9916 35.0334 42.8306 34.6482 42.5741C34.2631 42.3176 33.9446 41.973 33.7191 41.5689L32.7554 39.8341C32.2374 38.9022 31.4797 38.1257 30.5607 37.585C29.6418 37.0442 28.595 36.759 27.5288 36.7588H25.5979C25.072 36.7304 24.5644 36.5563 24.1318 36.2561C23.6992 35.9558 23.3586 35.5411 23.1481 35.0584C22.8846 34.5765 22.4868 34.1814 22.003 33.9214C21.5192 33.6614 20.9702 33.5476 20.4229 33.5939H20.4169C18.9067 33.841 17.5355 34.6224 16.5533 35.7959C15.3314 37.0264 13.268 39.6336 13.2791 41.6042C13.305 45.6355 20.0753 48.92 21.1517 49.4131C21.3075 49.6867 21.8547 51.1254 21.2972 57.3209C21.1225 59.2648 20.9659 64.1515 23.2926 67.5349C23.5589 67.9504 23.9278 68.2901 24.3637 68.5214C24.7996 68.7526 25.2878 68.8675 25.7811 68.8549C26.2045 68.8463 26.6244 68.7895 27.0349 68.6837C27.7917 68.4662 28.4548 68.0033 28.9198 67.3677C29.3848 66.7322 29.6253 65.9601 29.6034 65.1729C29.8383 62.9614 29.9536 61.4814 29.945 60.7715C29.9252 59.0118 31.1979 57.2848 33.7286 55.6413C36.4408 53.8799 38.13 49.7771 39.0688 46.6458C39.1848 46.2622 39.2152 45.8578 39.1576 45.4612C39.1001 45.0647 38.9561 44.6856 38.7359 44.3508C38.5156 44.016 38.2245 43.7337 37.883 43.5239C37.5416 43.3141 37.1583 43.1819 36.7601 43.1367ZM36.7825 45.9591C35.6346 49.7882 34.0461 52.5883 32.4284 53.6398C29.1672 55.7583 27.5288 58.1659 27.558 60.7982C27.5649 61.3971 27.4488 62.8616 27.2311 64.9216C27.0934 66.2218 26.7939 66.2898 26.5022 66.3569C25.6202 66.5583 25.4585 66.4713 25.2597 66.1831C23.9518 64.2788 23.358 61.046 23.6747 57.5352C24.3768 49.734 23.5654 47.7773 22.1335 47.2412C20.5279 46.6389 15.6799 43.6754 15.667 41.5895C16.1271 40.0053 17.0209 38.5812 18.2476 37.4781C19.4652 36.2511 20.2284 35.9809 20.4195 35.9809C20.6199 35.9499 20.9487 36.0033 21.027 36.1538C21.4338 37.0294 22.0775 37.7737 22.8853 38.3026C23.693 38.8315 24.6326 39.1238 25.5979 39.1466H27.5297C28.1702 39.1466 28.7991 39.3179 29.3512 39.6427C29.9033 39.9675 30.3585 40.4341 30.6696 40.9941L31.6333 42.7297C32.0437 43.4664 32.6239 44.0945 33.3258 44.5619C34.0277 45.0293 34.831 45.3224 35.669 45.417L36.4933 45.5099C36.5432 45.5147 36.5913 45.5307 36.6341 45.5568C36.6769 45.5829 36.7132 45.6184 36.7403 45.6605C36.7691 45.704 36.7879 45.7534 36.7952 45.805C36.8025 45.8567 36.7981 45.9093 36.7825 45.9591Z" fill="#165DED" stroke="#165DED" stroke-width="0.977"/>
</svg>
