<svg width="39" height="39" viewBox="0 0 39 39" fill="none" xmlns="http://www.w3.org/2000/svg">
<path d="M38.0169 14.7737L29.4437 11.0997V3.8405C29.4437 3.67075 29.3762 3.50801 29.2562 3.38792L26.0558 0.187584C25.9358 0.0674937 25.7729 6.10352e-05 25.6033 6.10352e-05H1.92022C1.41096 6.10352e-05 0.922466 0.202362 0.562383 0.562444C0.202301 0.922527 0 1.41102 0 1.92028V36.4846C0 36.9939 0.202301 37.4824 0.562383 37.8425C0.922466 38.2026 1.41096 38.4049 1.92022 38.4049H27.5235C28.0327 38.4049 28.5212 38.2026 28.8813 37.8425C29.2414 37.4824 29.4437 36.9939 29.4437 36.4846V34.8935L32.776 32.5162C34.5158 31.2708 35.9339 29.629 36.9128 27.7264C37.8916 25.8239 38.4031 23.7155 38.4048 21.5759V15.362C38.4048 15.2367 38.368 15.1143 38.2991 15.0097C38.2302 14.9051 38.1321 14.8231 38.0169 14.7737ZM28.1635 4.10547V4.48061H24.9632V1.28018H25.3382L28.1635 4.10547ZM27.5235 37.1248H1.92022C1.75047 37.1248 1.58764 37.0573 1.46755 36.9373C1.34755 36.8172 1.28012 36.6544 1.28012 36.4846V1.92028C1.28012 1.75053 1.34755 1.5877 1.46755 1.46761C1.58764 1.34761 1.75047 1.28018 1.92022 1.28018H23.683V5.12071C23.683 5.29047 23.7504 5.45321 23.8705 5.5733C23.9905 5.69329 24.1533 5.76073 24.3231 5.76073H28.1635V11.0997L19.5903 14.7737C19.4752 14.8231 19.3771 14.9051 19.3081 15.0097C19.2392 15.1143 19.2024 15.2367 19.2024 15.362V21.5759C19.2041 23.7155 19.7156 25.8239 20.6945 27.7264C21.6733 29.629 23.0915 31.2708 24.8313 32.5162L28.1635 34.8935V36.4846C28.1635 36.6544 28.0961 36.8172 27.9761 36.9373C27.8561 37.0573 27.6932 37.1248 27.5235 37.1248ZM37.1247 21.5759C37.1228 23.5113 36.6599 25.4184 35.7743 27.1394C34.8887 28.8603 33.606 30.3457 32.0322 31.4722L28.8036 33.7778L25.575 31.4735C24.0011 30.3468 22.7182 28.8613 21.8326 27.1401C20.9471 25.419 20.4843 23.5116 20.4826 21.5759V15.7838L28.8036 12.2179L37.1247 15.7838V21.5759Z" fill="#FFFFFE"/>
<path d="M28.5655 14.1272L22.1647 16.6876C22.0459 16.7351 21.9442 16.8172 21.8725 16.9232C21.8009 17.0292 21.7626 17.1542 21.7627 17.2821V21.321C21.7589 22.9536 22.1243 24.5659 22.8315 26.0373C23.5386 27.5087 24.5693 28.8012 25.8464 29.8181L28.4036 31.8664C28.5171 31.9573 28.6582 32.0069 28.8036 32.0069C28.949 32.0069 29.0902 31.9573 29.2037 31.8664L31.7608 29.8181C33.038 28.8012 34.0686 27.5087 34.7758 26.0373C35.483 24.5659 35.8483 22.9536 35.8446 21.321V17.2821C35.8446 17.1542 35.8064 17.0292 35.7348 16.9232C35.6631 16.8172 35.5613 16.7351 35.4426 16.6876L29.0417 14.1272C28.8888 14.0664 28.7184 14.0664 28.5655 14.1272ZM34.5643 17.7155V21.321C34.5678 22.7614 34.2455 24.1839 33.6216 25.4821C32.9977 26.7803 32.0882 27.9206 30.9614 28.8177L28.8036 30.5446L26.6459 28.8164C25.5192 27.9195 24.6099 26.7794 23.986 25.4814C23.362 24.1834 23.0397 22.7612 23.0429 21.321V17.7155L28.8036 15.4112L34.5643 17.7155Z" fill="#FFFFFE"/>
<path d="M3.20029 11.5215H21.1226C21.2923 11.5215 21.4552 11.4541 21.5752 11.3341C21.6952 11.214 21.7627 11.0511 21.7627 10.8814V3.20041C21.7627 3.03065 21.6952 2.86782 21.5752 2.74782C21.4552 2.62783 21.2923 2.5603 21.1226 2.5603H3.20029C3.03053 2.5603 2.8677 2.62783 2.7477 2.74782C2.62771 2.86782 2.56018 3.03065 2.56018 3.20041V10.8814C2.56018 11.0511 2.62771 11.214 2.7477 11.3341C2.8677 11.4541 3.03053 11.5215 3.20029 11.5215ZM3.84039 3.84051H20.4826V10.2414H3.84039V3.84051Z" fill="#FFFFFE"/>
<path d="M17.2821 26.8834H3.20029C3.03053 26.8834 2.8677 26.9508 2.7477 27.0708C2.62771 27.1909 2.56018 27.3537 2.56018 27.5235V35.2044C2.56018 35.3742 2.62771 35.537 2.7477 35.657C2.8677 35.777 3.03053 35.8445 3.20029 35.8445H17.2821C17.4519 35.8445 17.6147 35.777 17.7347 35.657C17.8547 35.537 17.9222 35.3742 17.9222 35.2044V27.5235C17.9222 27.3537 17.8547 27.1909 17.7347 27.0708C17.6147 26.9508 17.4519 26.8834 17.2821 26.8834ZM16.642 34.5643H3.84039V28.1635H16.642V34.5643Z" fill="#FFFFFE"/>
<path d="M2.56018 14.7218H17.9222V16.002H2.56018V14.7218Z" fill="#FFFFFE"/>
<path d="M2.56018 18.5623H17.9222V19.8425H2.56018V18.5623Z" fill="#FFFFFE"/>
<path d="M2.56018 22.4029H17.9222V23.683H2.56018V22.4029Z" fill="#FFFFFE"/>
</svg>
